HIERARCHY
ROOT Hips
{
	OFFSET 0.00000 0.00000 0.00000
	CHANNELS 6 Xposition Yposition Zposition Zrotation Yrotation Xrotation 
	JOINT LHipJoint
	{
		OFFSET 0 0 0
		CHANNELS 3 Zrotation Yrotation Xrotation
		JOINT LeftHip
		{
			OFFSET 1.73240 -1.89999 0.57994
			CHANNELS 3 Zrotation Yrotation Xrotation
			JOINT LeftKnee
			{
				OFFSET 2.43106 -6.67930 0.00000
				CHANNELS 3 Zrotation Yrotation Xrotation
				JOINT LeftAnkle
				{
					OFFSET 2.78854 -7.66147 0.00000
					CHANNELS 3 Zrotation Yrotation Xrotation
					JOINT LeftToe
					{
						OFFSET 0.17314 -0.47571 2.01064
						CHANNELS 3 Zrotation Yrotation Xrotation
						End Site
						{
							OFFSET 0.00000 -0.00000 1.04147
						}
					}
				}
			}
		}
	}
	JOINT RHipJoint
	{
		OFFSET 0 0 0
		CHANNELS 3 Zrotation Yrotation Xrotation
		JOINT RightHip
		{
			OFFSET -1.57078 -1.89998 0.57994
			CHANNELS 3 Zrotation Yrotation Xrotation
			JOINT RightKnee
			{
				OFFSET -2.50166 -6.87326 0.00000
				CHANNELS 3 Zrotation Yrotation Xrotation
				JOINT RightAnkle
				{
					OFFSET -2.77304 -7.61886 0.00000
					CHANNELS 3 Zrotation Yrotation Xrotation
					JOINT RightToe
					{
						OFFSET -0.23513 -0.64602 2.11039
						CHANNELS 3 Zrotation Yrotation Xrotation
						End Site
						{
							OFFSET -0.00000 -0.00000 1.10597
						}
					}
				}
			}
		}
	}
	JOINT lowerback
	{
		OFFSET 0 0 0
		CHANNELS 3 Zrotation Yrotation Xrotation
		JOINT Chest
		{
			OFFSET -0.00908 2.00015 -0.35323
			CHANNELS 3 Zrotation Yrotation Xrotation
			JOINT Chest2
			{
				OFFSET 0.05647 2.02258 0.04270
				CHANNELS 3 Zrotation Yrotation Xrotation
				JOINT lowerneck
				{
					OFFSET 0 0 0
					CHANNELS 3 Zrotation Yrotation Xrotation
					JOINT Neck
					{
						OFFSET -0.02074 1.73711 0.13117
						CHANNELS 3 Zrotation Yrotation Xrotation
						JOINT Head
						{
							OFFSET -0.02359 1.73615 -0.24320
							CHANNELS 3 Zrotation Yrotation Xrotation
							End Site
							{
								OFFSET -0.00579 1.75982 -0.09688
							}
						}
					}
				}
				JOINT LeftCollar
				{
					OFFSET 0 0 0
					CHANNELS 3 Zrotation Yrotation Xrotation
					JOINT LeftShoulder
					{
						OFFSET 3.20537 1.11432 -0.27680
CHANNELS 3 Zrotation Xrotation Yrotation
						JOINT LeftElbow
						{
OFFSET 0 -5.059230 -0.000000
CHANNELS 3 Zrotation Xrotation Yrotation
							JOINT LeftWrist
							{
OFFSET 0 -3.519960 0.000000
CHANNELS 3 Zrotation Xrotation Yrotation
								JOINT lhand
								{
									OFFSET 0 0 0
CHANNELS 3 Zrotation Xrotation Yrotation
									JOINT LFingers
									{
OFFSET 0 -0.652380 0.000000
CHANNELS 3 Zrotation Xrotation Yrotation
										End Site
										{
OFFSET 0 -0.525960 0.000000
										}
									}
								}
								JOINT LThumb
								{
OFFSET 0 0.000000 0.000000
CHANNELS 3 Zrotation Xrotation Yrotation
									End Site
									{
OFFSET 0 -0.533990 0.533990
									}
								}
							}
						}
					}
				}
				JOINT RightCollar
				{
					OFFSET 0 0 0
					CHANNELS 3 Zrotation Yrotation Xrotation
					JOINT RightShoulder
					{
						OFFSET -2.96983 1.42602 -0.37449
CHANNELS 3 Zrotation Xrotation Yrotation
						JOINT RightElbow
						{
OFFSET 0 -5.408670 0.000000
CHANNELS 3 Zrotation Xrotation Yrotation
							JOINT RightWrist
							{
OFFSET 0 -3.129640 0.000000
CHANNELS 3 Zrotation Xrotation Yrotation
								JOINT rhand
								{
									OFFSET 0 0 0
CHANNELS 3 Zrotation Xrotation Yrotation
									JOINT RFingers
									{
OFFSET 0 -0.832710 0.000000
CHANNELS 3 Zrotation Xrotation Yrotation
										End Site
										{
OFFSET 0 -0.671350 0.000000
										}
									}
								}
								JOINT RThumb
								{
OFFSET 0 0.000000 0.000000
CHANNELS 3 Zrotation Xrotation Yrotation
									End Site
									{
OFFSET 0 -0.681600 0.681600
									}
								}
							}
						}
					}
				}
			}
		}
	}
}
MOTION
Frames: 12
Frame Time: 0.008333333333333333
6.241092 17.147908 4.821897 -154.826344 -105.188529 156.478861 0.000000 0.000000 0.000000 4.677399 -15.938190 -20.643332 4.061757 12.242051 36.593890 -0.520508 13.772826 0.718301 0.167883 -2.635686 -7.266339 0.000000 0.000000 0.000000 6.649673 7.722004 -19.672230 -8.176335 -16.247371 53.195233 -1.951573 -4.880076 -28.511111 -0.675389 5.216337 -14.535540 2.072194 1.823851 39.355567 6.675534 2.946012 8.269165 4.952615 0.845168 -10.280704 -3.307299 -2.630369 -12.101711 -5.429001 -3.293403 -3.463641 -1.292313 -1.837050 0.896893 0.000000 0.000000 0.000000 -2.795032 12.968514 -20.181491 33.424106 -43.653461 13.713937 21.891825 14.481035 -47.395039 0.000000 0.000000 0.000000 -7.125000 0.000000 0.000000 -38.815809 76.962322 29.875438 0.000000 0.000000 0.000000 -19.928872 -16.895790 31.371086 -54.365046 -54.572068 -29.707424 -25.811646 34.201328 -11.658164 0.000000 0.000000 0.000000 7.125000 0.000000 0.000000 0.945650 17.071580 0.626323
6.261275 17.127324 4.938892 -155.239032 -104.923588 156.912584 0.000000 0.000000 0.000000 5.096598 -15.986370 -20.502197 4.040271 12.213754 36.492471 -0.530525 14.043477 1.049904 0.147248 -2.468657 -6.803017 0.000000 0.000000 0.000000 6.527620 8.056411 -19.528491 -8.128806 -16.213114 53.025100 -1.888718 -5.691027 -28.523732 -0.872167 5.920410 -16.563019 2.215383 1.915554 39.436101 6.836001 3.139835 8.227095 4.970645 0.927305 -10.375312 -3.456097 -2.682906 -12.085334 -5.460003 -3.357410 -3.573124 -1.277739 -1.867351 0.858880 0.000000 0.000000 0.000000 -2.952895 12.985743 -20.561274 33.401318 -43.636182 13.698211 21.231474 14.672504 -47.112118 0.000000 0.000000 0.000000 -7.125000 0.000000 0.000000 -38.586828 76.509167 29.351315 0.000000 0.000000 0.000000 -19.985617 -17.364171 30.964659 -51.659937 -53.603403 -27.515671 -25.296537 33.604383 -11.675092 0.000000 0.000000 0.000000 7.125000 0.000000 0.000000 1.305750 17.107540 0.863969
6.280955 17.108000 5.057929 -155.664324 -104.675032 157.365718 0.000000 0.000000 0.000000 5.489731 -16.015090 -20.376263 4.021079 12.188381 36.401690 -0.527786 14.198924 1.449948 0.131883 -2.339593 -6.445218 0.000000 0.000000 0.000000 6.383484 8.413355 -19.362189 -8.078277 -16.176437 52.843925 -1.844795 -6.289999 -28.558940 -1.012578 6.398135 -17.945458 2.385545 1.980359 39.499847 6.972596 3.307365 8.188730 4.959509 0.997090 -10.453811 -3.650674 -2.722184 -11.980953 -5.442503 -3.408737 -3.764282 -1.236519 -1.885954 0.781188 0.000000 0.000000 0.000000 -3.083280 12.999972 -20.954065 33.377849 -43.618399 13.682031 20.914592 15.044643 -46.747974 0.000000 0.000000 0.000000 -7.125000 0.000000 0.000000 -37.782685 76.132797 28.435297 0.000000 0.000000 0.000000 -20.012565 -17.834946 30.573811 -49.115660 -52.596548 -25.479506 -24.853551 32.801306 -11.582060 0.000000 0.000000 0.000000 7.125000 0.000000 0.000000 1.609862 17.254821 1.059315
6.300137 17.089920 5.178981 -156.102053 -104.442644 157.838005 0.000000 0.000000 0.000000 5.857143 -16.024606 -20.265328 4.004151 12.165894 36.321407 -0.512461 14.240694 1.917528 0.121716 -2.247991 -6.191545 0.000000 0.000000 0.000000 6.217557 8.792537 -19.173625 -8.024788 -16.137372 52.651855 -1.819553 -6.679799 -28.616435 -1.097370 6.652509 -18.691401 2.582323 2.018623 39.547025 7.085634 3.448951 8.154023 4.919592 1.054686 -10.516415 -3.890424 -2.748378 -11.789735 -5.377144 -3.447551 -4.036035 -1.169006 -1.893016 0.664343 0.000000 0.000000 0.000000 -3.186552 13.011241 -21.359691 33.353709 -43.600118 13.665403 20.936629 15.595061 -46.303683 0.000000 0.000000 0.000000 -7.125000 0.000000 0.000000 -36.410998 75.832196 27.132576 0.000000 0.000000 0.000000 -20.010111 -18.308085 30.198335 -46.730084 -51.552007 -23.596868 -24.481731 31.794829 -11.380524 0.000000 0.000000 0.000000 7.125000 0.000000 0.000000 1.858727 17.511950 1.212921
6.319319 17.072753 5.299830 -156.412397 -104.217616 158.170219 0.000000 0.000000 0.000000 6.150154 -16.038790 -20.123384 3.988543 12.145107 36.247238 -0.486909 14.213416 2.461462 0.122968 -2.258728 -6.221293 0.000000 0.000000 0.000000 5.942744 8.927123 -19.080702 -7.974217 -16.100185 52.469782 -1.811642 -6.705408 -28.578062 -1.155085 6.823067 -19.192470 2.686607 2.075132 39.615164 7.219405 3.578864 8.126141 4.955701 1.107917 -10.586683 -3.925696 -2.724962 -11.790026 -5.591500 -3.425135 -4.126251 -1.229235 -1.885944 0.633040 0.000000 0.000000 0.000000 -3.324234 13.025961 -21.732710 33.340227 -43.589907 13.656109 21.121526 16.198919 -45.902963 0.000000 0.000000 0.000000 -7.125000 0.000000 0.000000 -35.022158 75.618177 25.893903 0.000000 0.000000 0.000000 -20.023694 -18.794013 29.842779 -44.472655 -50.473869 -21.840905 -24.125061 30.662082 -11.105044 0.000000 0.000000 0.000000 7.125000 0.000000 0.000000 2.095157 17.846093 1.351657
6.338501 17.056476 5.420481 -156.598708 -103.999753 158.366045 0.000000 0.000000 0.000000 6.370722 -16.057522 -19.951247 3.974219 12.125975 36.179025 -0.451399 14.118909 3.079743 0.135338 -2.369112 -6.527002 0.000000 0.000000 0.000000 5.561909 8.823551 -19.080902 -7.926487 -16.064826 52.297445 -1.820607 -6.376409 -28.446343 -1.186437 6.912015 -19.455108 2.700830 2.149406 39.703712 7.373361 3.697412 8.104905 5.065835 1.156899 -10.664413 -3.761873 -2.653243 -11.976787 -6.078212 -3.343098 -4.039707 -1.413842 -1.865109 0.685027 0.000000 0.000000 0.000000 -3.495419 13.044041 -22.073978 33.337122 -43.587553 13.653955 21.464998 16.854812 -45.544666 0.000000 0.000000 0.000000 -7.125000 0.000000 0.000000 -33.616616 75.488461 24.717592 0.000000 0.000000 0.000000 -20.052893 -19.292393 29.506619 -42.340001 -49.363017 -20.208284 -23.783141 29.406389 -10.757565 0.000000 0.000000 0.000000 7.125000 0.000000 0.000000 2.319481 18.255225 1.475914
6.358756 17.042370 5.541949 -156.697918 -103.794150 158.489331 0.000000 0.000000 0.000000 6.541916 -16.115359 -19.787105 3.964390 12.112845 36.132292 -0.406159 13.937071 3.731152 0.159178 -2.559725 -7.055903 0.000000 0.000000 0.000000 5.215633 9.121507 -18.941972 -7.877813 -16.028522 52.121251 -1.816903 -6.336425 -28.397815 -1.196768 6.941475 -19.542038 2.653471 2.234561 39.813562 7.538786 3.811796 8.062393 5.222558 1.205983 -10.780430 -3.568114 -2.575623 -12.086997 -6.559099 -3.267702 -4.027236 -1.600723 -1.844606 0.700717 0.000000 0.000000 0.000000 -3.684586 13.086974 -22.374890 33.339508 -43.589363 13.655608 21.667169 17.374155 -45.252319 0.000000 0.000000 0.000000 -7.125000 0.000000 0.000000 -32.576307 75.349345 23.823961 0.000000 0.000000 0.000000 -20.075833 -19.760097 29.075440 -40.331611 -48.234644 -18.695790 -23.331056 28.104541 -10.469191 0.000000 0.000000 0.000000 7.125000 0.000000 0.000000 2.626486 18.607295 1.651052
6.380041 17.030350 5.664203 -156.713444 -103.600327 158.542920 0.000000 0.000000 0.000000 6.665672 -16.210768 -19.630644 3.958881 12.105483 36.106199 -0.351568 13.671328 4.414390 0.194036 -2.827421 -7.799242 0.000000 0.000000 0.000000 4.902562 9.805247 -18.669367 -7.828230 -15.991310 51.941351 -1.801027 -6.574121 -28.429218 -1.186902 6.913779 -19.460151 2.546943 2.330170 39.943879 7.715231 3.922180 7.999438 5.424044 1.255165 -10.933235 -3.345593 -2.492334 -12.123658 -7.034391 -3.198687 -4.085934 -1.789788 -1.824423 0.681535 0.000000 0.000000 0.000000 -3.891031 13.153785 -22.637027 33.347171 -43.595173 13.660916 21.733580 17.762302 -45.023338 0.000000 0.000000 0.000000 -7.125000 0.000000 0.000000 -31.886908 75.201198 23.201925 0.000000 0.000000 0.000000 -20.092762 -20.198328 28.552969 -38.442613 -47.089435 -17.298712 -22.773126 26.758348 -10.237605 0.000000 0.000000 0.000000 7.125000 0.000000 0.000000 3.012931 18.904541 1.875075
6.401404 17.017610 5.789825 -156.683207 -103.425786 158.571314 0.000000 0.000000 0.000000 6.754001 -16.243008 -19.533135 3.959362 12.106142 36.108540 -0.277643 13.162887 5.158895 0.254809 -3.216980 -8.886188 0.000000 0.000000 0.000000 4.504674 10.260300 -18.500630 -7.775691 -15.951604 51.750319 -1.787464 -6.625886 -28.367834 -1.180377 6.895441 -19.405903 2.780039 2.363717 39.881169 7.678671 4.032050 8.074826 5.215977 1.298485 -10.810331 -3.179068 -2.552993 -12.269585 -7.127614 -3.315912 -4.278167 -1.853545 -1.887307 0.638212 0.000000 0.000000 0.000000 -3.686148 12.936146 -23.183202 33.355682 -43.601651 13.666791 21.915864 18.131218 -44.735224 0.000000 0.000000 0.000000 -7.125000 0.000000 0.000000 -30.921903 75.047909 22.376191 0.000000 0.000000 0.000000 -19.939827 -20.790713 27.539524 -36.624213 -45.907873 -15.979276 -22.116317 25.300935 -10.038825 0.000000 0.000000 0.000000 7.125000 0.000000 0.000000 3.472904 19.171037 2.141854
6.422839 17.004187 5.918640 -156.609584 -103.269526 158.575821 0.000000 0.000000 0.000000 6.808742 -16.215362 -19.491516 3.965523 12.114406 36.137839 -0.185389 12.424357 5.961483 0.340151 -3.722072 -10.298893 0.000000 0.000000 0.000000 4.026377 10.498547 -18.430362 -7.720349 -15.909534 51.548733 -1.776095 -6.501379 -28.218485 -1.177022 6.885975 -19.377856 3.335114 2.338425 39.635460 7.440174 4.141432 8.281370 4.619633 1.336248 -10.426040 -3.065629 -2.750121 -12.519101 -6.858616 -3.609702 -4.596998 -1.798504 -2.028943 0.572002 0.000000 0.000000 0.000000 -3.091307 12.448834 -23.998661 33.364997 -43.608763 13.673202 22.208001 18.481903 -44.391051 0.000000 0.000000 0.000000 -7.125000 0.000000 0.000000 -29.695609 74.889746 21.357343 0.000000 0.000000 0.000000 -19.625854 -21.529243 26.060609 -34.872743 -44.691846 -14.733449 -21.365766 23.738080 -9.871145 0.000000 0.000000 0.000000 7.125000 0.000000 0.000000 4.002587 19.408383 2.449166
6.443085 16.989911 6.050352 -156.459109 -103.103174 158.505287 0.000000 0.000000 0.000000 6.816828 -16.109078 -19.475747 3.978100 12.131209 36.197672 -0.081595 11.360559 6.780295 0.517795 -4.511598 -12.538738 0.000000 0.000000 0.000000 3.581874 10.877045 -18.287822 -7.658123 -15.861771 51.321323 -1.727593 -6.767088 -28.052291 -1.252357 7.085125 -19.971905 3.708096 2.344107 39.457443 7.288492 4.239584 8.432384 4.219458 1.373545 -10.151440 -2.946859 -2.870086 -12.783910 -6.738873 -3.793335 -4.804483 -1.790790 -2.122216 0.544787 0.000000 0.000000 0.000000 -2.710334 12.122137 -24.590315 33.404588 -43.638723 13.700520 23.348394 19.429376 -43.792511 0.000000 0.000000 0.000000 -7.125000 0.000000 0.000000 -26.791330 74.824841 19.175115 0.000000 0.000000 0.000000 -19.432413 -22.194156 24.730768 -33.192693 -43.449296 -13.564347 -20.624453 21.935273 -9.667083 0.000000 0.000000 0.000000 7.125000 0.000000 0.000000 4.527508 19.679471 2.744420
6.462217 16.974836 6.184776 -156.236738 -102.927381 158.364553 0.000000 0.000000 0.000000 6.781268 -15.929228 -19.484161 3.996681 12.156000 36.286069 0.032996 9.992478 7.614285 0.781785 -5.567208 -15.552361 0.000000 0.000000 0.000000 3.168986 11.386744 -18.077672 -7.589459 -15.808682 51.069753 -1.644355 -7.397839 -27.870338 -1.401305 7.479433 -21.147915 3.910734 2.378764 39.342752 7.218024 4.327230 8.531449 4.002797 1.410407 -9.979454 -2.823103 -2.917866 -13.063025 -6.758756 -3.873920 -4.907805 -1.827351 -2.170246 0.554053 0.000000 0.000000 0.000000 -2.529433 11.945693 -24.972602 33.472502 -43.690059 13.747398 25.282317 20.935135 -42.956017 0.000000 0.000000 0.000000 -7.125000 0.000000 0.000000 -22.317323 74.847178 15.904564 0.000000 0.000000 0.000000 -19.351729 -22.790199 23.540384 -31.579455 -42.181934 -12.467018 -19.891782 19.907994 -9.428986 0.000000 0.000000 0.000000 7.125000 0.000000 0.000000 5.047976 19.982126 3.028393
